<svg width="32" height="33" viewBox="0 0 32 33" fill="none" xmlns="http://www.w3.org/2000/svg">
<path fill-rule="evenodd" clip-rule="evenodd" d="M27.6922 2.96155H4.30762C3.20305 2.96155 2.30762 3.85698 2.30762 4.96155V20.4923L11.5284 18.3619C12.4143 18.1572 13.3206 18.0538 14.2298 18.0538H17.7702C18.6794 18.0538 19.5857 18.1572 20.4716 18.3619L29.6922 20.4923V4.96155C29.6922 3.85698 28.7968 2.96155 27.6922 2.96155ZM4.30762 0.961548C2.09848 0.961548 0.307617 2.75241 0.307617 4.96155V28.0385C0.307617 28.9299 0.599246 29.7533 1.09231 30.4184V30.4846H1.14251C1.35468 30.7587 1.60167 31.0046 1.87685 31.2154V31.2615H1.93825C2.60145 31.7499 3.42083 32.0385 4.30761 32.0385H27.6922C28.579 32.0385 29.3984 31.7499 30.0616 31.2615H30.123V31.2154C30.3982 31.0046 30.6452 30.7587 30.8573 30.4846H30.9077V30.4181C31.4007 29.7531 31.6922 28.9298 31.6922 28.0385V4.96155C31.6922 2.75241 29.9014 0.961548 27.6922 0.961548H4.30762ZM8.86712 12.2622C10.4429 12.2622 11.7203 10.9974 11.7203 9.43707C11.7203 7.87677 10.4429 6.61189 8.86712 6.61189C7.29137 6.61189 6.01397 7.87677 6.01397 9.43707C6.01397 10.9974 7.29137 12.2622 8.86712 12.2622Z" fill="#CDCDCD"/>
</svg>
